<?xml version="1.0" encoding="utf-8"?>
<!-- Generator: Adobe Illustrator 20.1.0, SVG Export Plug-In . SVG Version: 6.00 Build 0)  -->
<svg version="1.1" id="Layer_1" xmlns="http://www.w3.org/2000/svg" xmlns:xlink="http://www.w3.org/1999/xlink" x="0px" y="0px"
	 viewBox="0 0 320 680" style="enable-background:new 0 0 320 680;" xml:space="preserve">
<style type="text/css">
	.st0{display:none;}
	.st1{display:inline;}
	.st2{fill:#A8DEFF;}
	.st3{opacity:0.38;fill:#FFFFFF;enable-background:new    ;}
	.st4{fill:#FFFFFF;}
	.st5{fill:none;stroke:#FFFFFF;stroke-width:2.8491;stroke-miterlimit:10;}
	.st6{fill:none;stroke:#FFFFFF;stroke-width:3.021;stroke-miterlimit:10;}
</style>
<g id="Layer_2_2_" class="st0">
	<g id="Layer_2_1_" class="st1">
		<g id="Layer_2">
			<rect class="st2" width="320" height="681.6"/>
		</g>
	</g>
</g>
<g id="Layer_1_3_">
	<g id="Layer_1_2_">
		<g id="Layer_3">
			<rect x="76.7" y="143.5" class="st3" width="107.1" height="9.1"/>
			<rect x="76.7" y="170.7" class="st3" width="107.1" height="9.1"/>
			<rect x="77.1" y="197.9" class="st3" width="177.8" height="9.1"/>
			<rect x="76.9" y="225.7" class="st3" width="177.8" height="9.1"/>
			<rect x="76.9" y="252.9" class="st3" width="177.8" height="9.1"/>
			<rect x="77.3" y="280" class="st3" width="177.8" height="9.1"/>
			<rect x="77" y="307.9" class="st3" width="177.8" height="9.1"/>
			<rect x="77" y="335.1" class="st3" width="177.8" height="9.1"/>
			<rect x="77.4" y="362.3" class="st3" width="177.8" height="9.1"/>
			<rect x="77.2" y="390.1" class="st3" width="177.8" height="9.1"/>
			<rect x="77.2" y="417.3" class="st3" width="177.8" height="9.1"/>
			<rect x="77.6" y="444.5" class="st3" width="177.8" height="9.1"/>
			<rect x="77.1" y="475.9" class="st3" width="177.8" height="9.1"/>
			<rect x="77.1" y="503.1" class="st3" width="177.8" height="9.1"/>
			<rect x="77.5" y="530.3" class="st3" width="177.8" height="9.1"/>
			<rect x="77.3" y="558.1" class="st3" width="177.8" height="9.1"/>
		</g>
		<g id="Layer_1_1_">
			<g>
				<path class="st4" d="M179.2,266.6c-2.5,16.7-10,29.9-26.8,29.9c-11.3,0-19.9-6.2-25.5-16.2c-4.7-8.6-6.8-19.7-6.8-33.1v-37.3
					h4.7c1,14.5,2,15.5,16.2,15.5h68c14,0,15-0.7,16-14.2h4.7v43.4c0,12.7-2,20.1-5.7,25.3c-4.1,6.1-11.5,9.5-19.2,9.5
					c-16,0-22.6-13.3-25.1-22.8L179.2,266.6L179.2,266.6z M141.2,239.6c-12.2,0-15.4,3.2-15.4,14c0.2,13.8,7.3,26.2,24.8,26.2
					c17.4,0,25-11.8,25-32.4v-7.8L141.2,239.6L141.2,239.6z M181.2,247.6c0,18.6,7.4,26.3,21.6,26.3c11.5,0,21.6-6.4,21.6-22.4
					c0-4.2-0.7-7.9-1.7-9.6c-1-1.5-2.9-2.2-8.4-2.2h-33.1L181.2,247.6L181.2,247.6z"/>
				<path class="st4" d="M158.3,424.6c-27.2,0-40.2-19.9-40.2-36.6c0-23.1,18.6-37,37.3-37c27.8,0,40.5,21.6,40.5,37
					C195.9,408.9,179.2,424.6,158.3,424.6z M160.8,366.7c-21.3,0-37.1,9.3-37.1,23.1c0,10.5,7.8,19.1,30.9,19.1
					c19.7,0,35.8-7.9,35.8-22.6C190.3,375.8,179.9,366.7,160.8,366.7z"/>
				<path class="st4" d="M192.7,509.9c-2.7-1.5-7.1-4.9-8.6-7.6l0.5-9.6c-3.7,3.2-8.9,5.1-15,5.1c-18.2,0-27-15.2-27-29.5
					c0-2.9,0.5-5.9,0.8-8.6c-1.5-2.4-4.6-5.1-6.9-5.1c-3.4,0-6.6,3-6.6,10.6c0,6.1,0.2,12.2,0.2,17.7c0,10.5-3.4,24.3-19.9,24.3
					c-17,0-33.4-19.7-33.4-42.2c0-18.7,11-29,20.6-29.2c3.7,0,6.9,1.5,9.5,4.1c3.4,3.4,8.8,10,11.8,14c1.9-6.1,5.7-10.3,9.3-12.5
					c2.5-1.5,5.4-2,7.1-1.9c2.5,6.8,6.9,12.2,10.3,14.9c3.2-7.6,11.1-14.9,22.6-14.9c19.2,0,28,17.2,28,30.2
					c0,5.7-1.5,11.3-4.2,16.2c0.3,8.3,1.3,16.9,2.4,23L192.7,509.9z M114.5,456.9c-3.5-4.4-8.3-7.8-13.2-7.8c-9.1,0-16,9.8-16,22.3
					c0,16,8.3,24.3,18.7,24.3c5.7,0,10-2.9,12-7.8c1.7-4.2,2.2-9.1,2.2-16.2C118.3,463.6,117.2,459.9,114.5,456.9z M170.6,454
					c-13.2,0-22.6,6.4-22.6,15.9c0.2,7.4,6.8,14,20.1,14s22.8-6.2,22.8-15.9C190.8,460.6,183.7,454,170.6,454z"/>
				<g>
					<polygon class="st4" points="125.3,318.3 125.3,331 183.8,335.5 183.8,313.8 					"/>
					<polygon class="st4" points="185.5,314 185.5,335.3 209.2,331 209.2,318.3 					"/>
					<path class="st4" d="M224.2,318.6l-13.5,1.7l0.1,8.8l12,1.7c0,0,6.7-6.1,14.3-5.5C237.2,325.2,228.7,324.1,224.2,318.6z
						 M224.1,322.9c0.7,0.7,0.7,2,0,2.7s-2,0.7-2.7,0s-0.7-2,0-2.7C222.1,322.1,223.4,322.1,224.1,322.9z"/>
					<path class="st4" d="M123.8,330.6v-11.7C117.8,325,123.8,330.6,123.8,330.6z"/>
				</g>
			</g>
			<path class="st5" d="M278.2,177.6h-2.5H228c-11.7,0-21.2-9.5-21.2-21.2"/>
			<path class="st5" d="M278.2,177.6v403.3c0,11.7-9.5,21.2-21.2,21.2H70c-11.7,0-21.2-9.5-21.2-21.2V129c0-11.7,9.5-21.2,21.2-21.2
				h136.8"/>
			<path class="st5" d="M206.7,156.4v-48.6"/>
			<line class="st6" x1="278.9" y1="178.3" x2="205.4" y2="107.1"/>
		</g>
	</g>
</g>
</svg>
