<?xml version="1.0" encoding="utf-8"?>
<!-- Generator: Adobe Illustrator 20.1.0, SVG Export Plug-In . SVG Version: 6.00 Build 0)  -->
<svg version="1.1" id="Layer_1" xmlns="http://www.w3.org/2000/svg" xmlns:xlink="http://www.w3.org/1999/xlink" x="0px" y="0px"
	 viewBox="0 0 320 680" style="enable-background:new 0 0 320 680;" xml:space="preserve">
<style type="text/css">
	.st0{display:none;}
	.st1{display:inline;}
	.st2{fill:#89ECDA;}
	.st3{fill:#A8DEFF;}
	.st4{fill:#A8DEFF;stroke:#FFFFFF;stroke-width:5.3054;stroke-miterlimit:10;}
	.st5{fill:#FFFFFF;}
</style>
<g id="Layer_2_1_" class="st0">
	<g id="Layer_1_1_" class="st1">
		<rect class="st2" width="320" height="680"/>
	</g>
</g>
<g id="Layer_1_2_">
	<g id="Layer_2">
		<path class="st3" d="M140.2,191.5c-6.8-2.1-17.6-5.8-22.5-8.4c-1-4.1-4-16.5-4-27.1c0-36.7,25.3-52.8,48.7-52.8
			c30.9,0,51.4,23.8,51.4,56.7c0,12-3.3,21.9-4,26.1c-8.4,1.2-14.3,2.1-22.2,3l-1-4.4c15.6-3.8,21.9-12.7,21.9-28.6
			c0-24.6-20.7-37.7-43.1-37.7c-27.5,0-46.4,16.2-46.4,38.6c0,15,8.1,23,22.8,30.3L140.2,191.5z"/>
		<path class="st3" d="M119,320.6h3.8c0.8,8.7,2.1,9.7,12.2,9.7h24.6c10.2,0,16.8-3.5,16.8-13.4c0-5.9-3.6-11.7-7.5-16.1h-34.6
			c-10,0-10.6,0.8-11.5,9.6H119v-31.9h3.8c1,10,1.8,10.7,11.5,10.7h30.4c9.4,0,9.9-0.8,11.3-8.9h3.4c1.3,7.1,3.1,14,6.1,20.4h-11.8
			c2.2,3,4.4,6.2,6.9,9.9c2.6,4.1,4.4,7.9,4.4,12.2c0,11.7-8.1,19-22.4,19h-28.4c-10,0-10.6,0.7-11.5,9.2h-3.8L119,320.6L119,320.6z
			"/>
		<path class="st3" d="M119.2,386.8c-1.3-2.5-2-4.9-2-6.2c0-9.2,5.9-14.5,17.6-14.5h42.9V356l1.5-0.6l4.3,4v6.8h10.7l9.7,9.6
			l-0.3,2.1h-20.2v16.6c-1.5,1.3-4.7,0.8-5.8-0.8v-15.8h-37.8c-12,0-14.1,4.9-14.1,8.5s1.5,7.1,2.5,9.2l-3.8,1.3L119.2,386.8z"/>
		<path class="st3" d="M132.3,552.1c-8.5-6.4-15-16.3-15-25c0-18.6,15-29.4,30.8-29.4c11.3,0,21.2,4.9,28.9,14.8
			c5.9,7.7,8.2,16.5,8.2,22.2c0,5.9-2,10.7-3.8,13.1c-1.6,1.9-3,2.3-4.6,2.3c-3.1,0-6.3-3.3-6.3-4.9c0-0.7,0.5-1.5,1.6-2.8
			c4.1-4.4,6.1-9.6,6.1-14.8c0-9.7-8.1-18.3-23.5-18.3c-20.4,0-27.3,14-27.3,22.2c0,6.3,1.8,11.2,8.1,17.9L132.3,552.1z"/>
		<path class="st3" d="M119.2,592c-1.3-2.5-2-4.9-2-6.2c0-9.2,5.9-14.5,17.6-14.5h42.9v-10.2l1.5-0.6l4.3,4v6.8h10.7l9.7,9.6
			l-0.3,2.1h-20.2v16.6c-1.5,1.3-4.7,0.8-5.8-0.8V583h-37.8c-12,0-14.1,4.9-14.1,8.5s1.5,7.1,2.5,9.2l-3.8,1.3L119.2,592z"/>
		<path class="st3" d="M165.3,208h4.5c0.8,0,2.2,0.9,2.2,0.9c7.2,7.1,11.3,16.8,11.3,26.9c0,10.2-4.1,19.9-11.4,27
			c0,0-1.4,0.9-2.2,0.9h-4.5c-1.7,0-3.6-1.2-4.4-2.7l-0.3-0.7c-0.7-1.5-0.7-3.8,0.2-5.3l3.1-5.3c0.8-1.4,2.9-2.6,4.5-2.6h3
			c4-7,4-15.6,0-22.6h-3c-1.7,0-3.6-1.2-4.5-2.6l-3-5.3c-0.8-1.4-0.9-3.8-0.2-5.3l0.3-0.7C161.7,209.3,163.7,208,165.3,208z
			 M139.2,264.1h-16.1c-2.2,0-4-1.8-4-4v-48.3c0-2.2,1.8-4,4-4h16.1c2.2,0,5.3,1.3,6.8,2.8l10.4,10.4c1.6,1.6,2.8,4.7,2.8,6.8h4
			c2.5,1.9,4,4.9,4,8c0,3.2-1.5,6.2-4,8h-4c0,2.2-1.3,5.3-2.8,6.8L146,261C144.4,262.9,141.3,264.1,139.2,264.1z M139.2,248
			c6.6,0,12-5.4,12-12s-5.4-12-12-12s-12,5.4-12,12C127.1,242.6,132.5,248,139.2,248z M147.2,236c0-4.4-3.6-8-8-8s-8,3.6-8,8
			c0,4.5,3.6,8,8,8C143.6,244,147.2,240.4,147.2,236z"/>
		<circle class="st4" cx="152.6" cy="444.7" r="38.7"/>
		<path class="st5" d="M126.9,461c0-1.7,1-4.1,2.1-5.4c1.6-1.5,3.2-2.1,5.1-2.7c-3.1-4.6-7.4-10.1-7.4-13.5c0-8.1,6.8-13.7,14-13.7
			c5.6,0,9.2,3,11.4,9.3c2.3,6.9,5.4,15.2,7.5,17.8h2.1c8.2,0,13-3.9,13-9.6c0-2.3-0.9-4-2.3-5.1c-1.5-1.5-4-2.5-7.6-3.5
			c-1.9-0.5-2.6-1.7-2.6-3.4c0-2.1,2.3-5,4.9-5c1.7,0,3,1.5,4.6,3.6c2.3,3.2,6.8,10.6,8,17.2c0,3.5-1,6.9-3.1,9.4
			c-3.4,4-8,5.1-14,5.1h-21.4c-5.1,0-6.9,2.1-6.9,4c0,1.4,0.6,3,1.3,4.1l-3,1.1L126.9,461z M155.8,452.6c-1.3-2.4-3.6-7.9-4.9-10.4
			c-2.1-4.5-4.2-7-8.4-7c-6,0-8.9,4.6-8.9,8.1c0.1,3,2.1,7,4.1,9.2L155.8,452.6L155.8,452.6z"/>
	</g>
</g>
</svg>
