<?xml version="1.0" encoding="utf-8"?>
<!-- Generator: Adobe Illustrator 20.1.0, SVG Export Plug-In . SVG Version: 6.00 Build 0)  -->
<svg version="1.1" xmlns="http://www.w3.org/2000/svg" xmlns:xlink="http://www.w3.org/1999/xlink" x="0px" y="0px"
	 viewBox="0 0 320 680" style="enable-background:new 0 0 320 680;" xml:space="preserve">
<style type="text/css">
	.st0{fill:#A8DEFF;}
	.st1{fill:#FFFFFF;stroke:#FFFFFF;stroke-width:1.165;stroke-miterlimit:10;}
	.st2{fill:none;stroke:#F2F2F2;stroke-width:2;stroke-miterlimit:10;}
</style>
<g id="Layer_2">
	<rect x="0.9" class="st0" width="320" height="680.9"/>
</g>
<g id="Layer_1">
	<g>
		<path class="st1" d="M218.7,154.3c0,21.2-4.3,36.9-14.2,47.3c-8,8.2-20.2,14-35.9,14c-20.1,0-34.9-7.7-44.6-20.6
			c-9.7-12.5-13.9-29.1-13.9-49.6v-39.6h4.5c1,14.4,2,15.7,16.2,15.7h67c14.4,0,15-1.3,16-14.2h4.8V154.3z M132,135.9
			c-12.7,0-15.9,5.5-15.9,17.7c0,31.3,23.4,45.6,50.1,45.6c17.2,0,32.1-6.4,40-19.7c4.8-7.5,6.9-17.2,6.9-28.4c0-7-0.8-11.4-2-13
			c-1.2-1.7-3-2.2-9.5-2.2H132z"/>
		<path class="st1" d="M124.3,290.2c-13.2-10.5-16.2-22.1-16.2-27.2c0-20.6,16.7-32.6,35.6-32.6c11.5,0,21.7,4.2,29.3,11
			c7.7,6.9,12.2,15.9,12.2,24.6c0,13.9-12.4,25.1-25.4,25.1c-3.3,0-4.7-0.8-5.3-3.8c-0.5-2.8-2.2-23.7-2.8-43.6
			c-22.7,0.2-32.1,13.2-32.1,24.9c0,6.7,2.7,13,8.4,19.1L124.3,290.2z M158.4,244.4c0,9.4,0.2,18.6,0.5,28.2c0,3,1,4,3.3,4
			c8.7,0.2,16.7-5.5,16.7-14.7C179,254.2,171.9,246.9,158.4,244.4z"/>
		<path class="st1" d="M163.4,344.3c9.9-3.2,16.5-9,16.5-17.2c0-6.4-5-10.9-11.5-10.9c-7.5,0-11.4,6.7-14.5,14.2
			c-5.2,12.5-11.2,21.1-22.7,21.1c-15.2,0-23.1-14.2-23.1-27.6c0-8.5,3.2-16.2,5.7-19.2c2.3-1.2,13.7-2.7,19.7-2.7l0.8,4.3
			c-11,3-20.7,10.5-20.7,20.6c0,6.2,4.7,11.9,11.7,11.9c7.4,0,11.4-4.8,15.2-13.2c4.7-10,10.2-20.9,23.1-20.9
			c11.7,0,21.6,10,21.6,25.4c0,6.9-1.5,11.4-2.8,14.9c-3.8,1.3-13.7,3.2-17.9,3.7L163.4,344.3z"/>
		<path class="st1" d="M110.1,361.9h4.3c1,10.5,2,11.7,13.4,11.7h34.4c10.4,0,11-0.5,12.7-10.5h4c1.3,8.5,3.5,16.4,6.5,23.7h-57.7
			c-11.4,0-12.4,1.2-13.4,11.9h-4.3V361.9z M208.2,370.7c5,0,8.7,4,8.7,8.5c0,4.7-3.7,8.4-8.7,8.4c-4.5,0-8.5-3.7-8.5-8.5
			C199.7,374.7,203.7,370.7,208.2,370.7z"/>
		<path class="st1" d="M182,479.5c-2.7-1.5-7-4.8-8.5-7.5l0.5-9.5c-3.7,3.2-8.9,5-14.9,5c-18.1,0-26.7-15-26.7-29.3
			c0-2.8,0.5-5.9,0.8-8.5c-1.5-2.3-4.5-5-6.9-5c-3.3,0-6.5,3-6.5,10.5c0,6,0.2,12,0.2,17.6c0,10.4-3.3,24.1-19.7,24.1
			c-16.9,0-33.1-19.6-33.1-41.8c0-18.6,10.9-28.8,20.4-28.9c3.7,0,6.9,1.5,9.4,4c3.3,3.3,8.7,9.9,11.7,13.9c1.8-6,5.7-10.2,9.2-12.4
			c2.5-1.5,5.3-2,7-1.8c2.5,6.7,6.9,12,10.2,14.7c3.2-7.5,11-14.7,22.4-14.7c19.1,0,27.7,17,27.7,29.9c0,5.7-1.5,11.2-4.2,16
			c0.3,8.2,1.3,16.7,2.3,22.7L182,479.5z M104.6,427c-3.5-4.3-8.2-7.7-13-7.7c-9,0-15.9,9.7-15.9,22.1c0,15.9,8.2,24.1,18.6,24.1
			c5.7,0,9.9-2.8,11.9-7.7c1.7-4.2,2.2-9,2.2-16C108.3,433.7,107.2,430,104.6,427z M160.1,424.2c-13,0-22.4,6.4-22.4,15.7
			c0.2,7.4,6.7,13.9,19.9,13.9s22.6-6.2,22.6-15.7C180.1,430.7,173.1,424.2,160.1,424.2z"/>
		<path class="st1" d="M110.1,533h4.3c1,9.9,2.3,11,13.9,11h27.9c11.5,0,19.1-4,19.1-15.2c0-6.7-4.2-13.2-8.5-18.2h-39.3
			c-11.4,0-12,1-13,10.9h-4.3v-36.3h4.3c1.2,11.4,2,12.2,13,12.2h34.6c10.7,0,11.2-1,12.9-10h3.8c1.5,8,3.5,15.9,6.9,23.2h-13.4
			c2.5,3.3,5,7,7.9,11.2c3,4.7,5,9,5,13.9c0,13.2-9.2,21.6-25.4,21.6h-32.3c-11.4,0-12,0.8-13,10.5h-4.3V533z"/>
	</g>
	<g>
		<line class="st2" x1="220.1" y1="96.5" x2="218.3" y2="596.4"/>
		<line class="st2" x1="200.3" y1="96.4" x2="198.6" y2="584.8"/>
		<line class="st2" x1="187" y1="83.7" x2="185.1" y2="612.3"/>
		<line class="st2" x1="111.4" y1="91.2" x2="111.4" y2="596.4"/>
		<circle class="st2" cx="206.6" cy="114.5" r="7.2"/>
		<circle class="st2" cx="206.6" cy="143.2" r="7.2"/>
		<circle class="st2" cx="124.6" cy="114.5" r="7.2"/>
		<circle class="st2" cx="127.5" cy="143.2" r="7.2"/>
		<circle class="st2" cx="165.7" cy="161.5" r="54.3"/>
		<line class="st2" x1="261.2" y1="121.7" x2="77" y2="121.7"/>
		<line class="st2" x1="262.1" y1="136" x2="77.9" y2="136"/>
		<line class="st2" x1="261.2" y1="215.8" x2="77" y2="215.8"/>
		<line class="st2" x1="274.7" y1="230.5" x2="60.1" y2="230.5"/>
		<line class="st2" x1="262.1" y1="291.1" x2="77.9" y2="291.1"/>
		<line class="st2" x1="261.2" y1="302.2" x2="77" y2="302.2"/>
		<line class="st2" x1="261.2" y1="351.7" x2="77" y2="351.7"/>
		<line class="st2" x1="259.7" y1="362" x2="75.4" y2="362"/>
		<line class="st2" x1="258" y1="398.8" x2="73.8" y2="398.8"/>
		<line class="st2" x1="265.1" y1="406.3" x2="73.6" y2="406.3"/>
		<line class="st2" x1="265.1" y1="479.7" x2="68.1" y2="479.7"/>
		<line class="st2" x1="265.1" y1="485.4" x2="68.1" y2="485.4"/>
		<line class="st2" x1="266.4" y1="567.9" x2="82.1" y2="567.9"/>
		<line class="st2" x1="259.7" y1="511.5" x2="75.4" y2="511.5"/>
		<line class="st2" x1="259.7" y1="543.3" x2="75.4" y2="543.3"/>
		<line class="st2" x1="99.1" y1="98.5" x2="221.4" y2="497.3"/>
		<line class="st2" x1="252.8" y1="116.3" x2="56.3" y2="484.2"/>
		<line class="st2" x1="265.7" y1="124.8" x2="69.2" y2="492.7"/>
		<circle class="st2" cx="127.5" cy="326.9" r="12.4"/>
		<circle class="st2" cx="169.6" cy="328.2" r="12.4"/>
		<circle class="st2" cx="159.2" cy="436.3" r="25.5"/>
		<circle class="st2" cx="121.5" cy="516.1" r="4.7"/>
		<circle class="st2" cx="169.6" cy="492.7" r="4.7"/>
		<circle class="st2" cx="170" cy="368.3" r="4.7"/>
		<circle class="st2" cx="121.5" cy="368.3" r="4.7"/>
		<circle class="st2" cx="121.5" cy="392.2" r="4.7"/>
		<circle class="st2" cx="121.5" cy="492.7" r="4.7"/>
		<circle class="st2" cx="121.5" cy="538.6" r="4.7"/>
		<circle class="st2" cx="121.5" cy="563.3" r="4.7"/>
		<circle class="st2" cx="160.3" cy="442.6" r="25.5"/>
	</g>
</g>
</svg>
