<?xml version="1.0" encoding="utf-8"?>
<!-- Generator: Adobe Illustrator 20.1.0, SVG Export Plug-In . SVG Version: 6.00 Build 0)  -->
<svg version="1.1" id="Layer_1" xmlns="http://www.w3.org/2000/svg" xmlns:xlink="http://www.w3.org/1999/xlink" x="0px" y="0px"
	 viewBox="0 0 320 680" style="enable-background:new 0 0 320 680;" xml:space="preserve">
<style type="text/css">
	.st0{fill:#FFFFFF;}
	.st1{fill:#A8DEFF;}
	.st2{fill:#A8DEFF;stroke:#FFFFFF;stroke-width:0.9589;stroke-miterlimit:10;}
	.st3{fill:#A8DEFF;stroke:#FFFFFF;stroke-width:0.9544;stroke-miterlimit:10;}
	.st4{fill:#A8DEFF;stroke:#FFFFFF;stroke-width:0.9866;stroke-miterlimit:10;}
	.st5{fill:none;stroke:#A8DEFF;stroke-miterlimit:10;}
	.st6{fill:#F7F7F7;}
</style>
<g id="Layer_2_1_">
	<g id="Layer_1_1_">
		<rect class="st0" width="320" height="680"/>
	</g>
</g>
<g id="Layer_2">
	<path class="st1" d="M215.8,152.4c0,11.5-1.9,20.7-6.8,27.2c-4.7,6.3-12.1,10.5-22.8,10.5c-20.9,0-31.1-15.9-33.2-31.6
		c-0.2-2.4-0.2-5.5,0-7.3l3.1-12h-25.4c-13.8,0-14.6,1.5-15.5,16h-4.5v-43.9h4.5c1,13,2.3,14.2,15.7,14.2h64.8
		c14.2,0,14.9-1.3,15.7-13.3h4.5v40.2L215.8,152.4L215.8,152.4z M161.4,139.3c-0.8,2.1-1.9,6.5-1.9,11.8c0,10.5,5.7,23.5,26.2,23.5
		c17.5,0,24.9-11.2,24.9-24.5c0-4.5-0.8-7.9-1.9-9.1c-1.1-1.3-3.1-1.8-7.6-1.8h-39.7V139.3z"/>
	<path class="st1" d="M110.5,244.2h4.2c1,9.4,1.9,10.7,12.5,10.7h26.9c13.3,0,19.9-5,19.9-15.9c0-6.2-3.1-12.3-8.3-16.8h-38.5
		c-10.4,0-11.5,0.8-12.5,10.4h-4.2v-34.3h4.2c0.8,9.7,1.8,11.2,12.5,11.2h77.2c10.2,0,11-0.3,12-11h3.7c1.1,7.8,3.7,17.5,5.7,23.8
		h-54.4c5.8,5.7,11.8,14.4,11.8,23.2c0,13.1-8.3,22.3-27.7,22.3h-28.3c-10.7,0-11.7,1.1-12.5,10.7h-4.2L110.5,244.2L110.5,244.2z"/>
	<path class="st1" d="M110.7,399.2c-1.5-2.8-2.1-5.3-2.1-6.8c0-10.2,6.5-15.9,19.3-15.9H175v-11.2l1.6-0.6l4.7,4.4v7.4h11.8
		l10.7,10.5l-0.3,2.3h-22.2v18.3c-1.6,1.5-5.2,1-6.3-1v-17.3h-41.6c-13.1,0-15.5,5.3-15.5,9.4c0,4,1.6,7.8,2.8,10l-4.2,1.5
		L110.7,399.2z"/>
	<path class="st1" d="M162.2,540.5c9.6-3.1,16-8.7,16-16.7c0-6.2-4.9-10.5-11.2-10.5c-7.3,0-11,6.5-14.1,13.8
		c-5,12.1-10.8,20.4-22,20.4c-14.7,0-22.3-13.8-22.3-26.7c0-8.3,3.1-15.7,5.5-18.6c2.3-1.1,13.3-2.6,19.1-2.6l0.8,4.2
		c-10.7,2.9-20.1,10.2-20.1,19.9c0,6,4.5,11.5,11.3,11.5c7.1,0,11-4.7,14.7-12.8c4.5-9.7,9.9-20.2,22.3-20.2
		c11.3,0,20.9,9.7,20.9,24.6c0,6.6-1.5,11-2.8,14.4c-3.7,1.3-13.3,3.1-17.3,3.6L162.2,540.5z"/>
	<g>
		<g id="XMLID_1_">
			<g>
				<path class="st1" d="M148.4,466.8v11.9c0,1.7-1.4,3-3,3h-31.8c-1.7,0-3-1.4-3-3v-56.2c0-1.7,1.4-3,3-3h31.8c1.7,0,3,1.4,3,3
					v12.9c1.8,1.1,8,4.9,8.9,7.2v16.6C156.3,461.7,150.2,465.7,148.4,466.8z"/>
			</g>
			<g>
				<path class="st2" d="M148.4,466.4v0.4v11.9c0,1.7-1.4,3-3,3h-31.8c-1.7,0-3-1.4-3-3v-56.2c0-1.7,1.4-3,3-3h31.8c1.7,0,3,1.4,3,3
					v12.9v0.1"/>
				<path class="st3" d="M148,435.1c0,0,0.2,0.1,0.5,0.3c1.8,1.1,8,4.9,8.9,7.2"/>
				<path class="st4" d="M148,467.1c0,0,0.2-0.1,0.5-0.3c1.8-1.1,7.9-5.1,8.9-7.6v-0.1"/>
				<polyline class="st2" points="157.3,442.6 157.3,459.2 157.3,459.4 				"/>
			</g>
		</g>
		<circle class="st1" cx="143.8" cy="468.6" r="1.5"/>
		<line class="st5" x1="154" y1="424.3" x2="154" y2="432.5"/>
		<circle class="st6" cx="129.7" cy="451.1" r="14.3"/>
		<circle class="st1" cx="129.7" cy="451.1" r="11.4"/>
	</g>
	<g>
		<path class="st1" d="M151.8,356.8c1.4,1.8,0.6,3.3-1.7,3.3h-37.3c-2.3,0-3-1.5-1.7-3.3l7.5-9.9c1.4-1.8,4.4-3.3,6.6-3.3h12.4
			c2.3,0,5.3,1.5,6.6,3.3L151.8,356.8z M170.9,302.1c0-4.6-3.7-8.3-8.3-8.3s-8.3,3.7-8.3,8.3c0,4.6,3.7,8.3,8.3,8.3
			S170.9,306.7,170.9,302.1z M175.1,327c0-5.7-4.6-10.4-10.4-10.4c-5.7,0-10.4,4.6-10.4,10.4c0,5.7,4.6,10.4,10.4,10.4
			S175.1,332.7,175.1,327z M141.9,310.4v29H117c-2.3,0-4.1-1.9-4.1-4.1V298c0-2.3,1.9-4.1,4.1-4.1h29c2.3,0,4.1,1.9,4.1,4.1v37.3
			c0,2.3-1.9,4.1-4.1,4.1v-29H141.9z M125.3,310.4c2.3,0,4.1-1.9,4.1-4.1s-1.9-4.1-4.1-4.1c-2.3,0-4.1,1.9-4.1,4.1
			S123,310.4,125.3,310.4z"/>
	</g>
</g>
</svg>
