<?xml version="1.0" encoding="utf-8"?>
<!-- Generator: Adobe Illustrator 20.1.0, SVG Export Plug-In . SVG Version: 6.00 Build 0)  -->
<svg version="1.1" xmlns="http://www.w3.org/2000/svg" xmlns:xlink="http://www.w3.org/1999/xlink" x="0px" y="0px"
	 viewBox="0 0 485.2 485.2" style="enable-background:new 0 0 485.2 485.2;" xml:space="preserve">
<style type="text/css">
	.st0{fill:none;stroke:#FFFFFF;stroke-width:6;stroke-miterlimit:10;}
	.st1{fill:none;stroke:#FFFFFF;stroke-width:5.9718;stroke-miterlimit:10;}
	.st2{fill:none;stroke:#FFFFFF;stroke-width:6.1733;stroke-miterlimit:10;}
	.st3{fill:none;stroke:#FFFFFF;stroke-width:20;stroke-miterlimit:10;}
	.st4{fill:#FFFFFF;}
	.st5{fill:none;stroke:#FFFFFF;stroke-width:14;stroke-miterlimit:10;}
</style>
<g id="Capa_1">
	<g>
		<path d="M461,176.4c13.3-10,24.3-4.5,24.3,12.1v272.9c0,16.7-10.9,22.1-24.3,12.1L388.2,419c-13.3-10-24.3-31.8-24.3-48.5v-91
			c0-16.7,10.9-38.5,24.3-48.5L461,176.4z M60.7,36.9C27.2,36.9,0,64.1,0,97.6c0,33.5,27.2,60.7,60.7,60.7
			c33.5,0,60.7-27.2,60.7-60.7C121.3,64.1,94.1,36.9,60.7,36.9z M242.6,6.6c-41.9,0-75.8,33.9-75.8,75.8s33.9,75.8,75.8,75.8
			c41.9,0,75.8-33.9,75.8-75.8S284.5,6.6,242.6,6.6z M121.3,249.2h212.3v182c0,16.8-13.6,30.3-30.3,30.3H30.3
			C13.6,461.5,0,447.9,0,431.1V218.9c0-16.8,13.6-30.3,30.3-30.3h272.9c16.8,0,30.3,13.6,30.3,30.3H121.3V249.2z M121.3,370.5
			c0-16.8-13.6-30.3-30.3-30.3s-30.3,13.6-30.3,30.3c0,16.8,13.6,30.3,30.3,30.3S121.3,387.3,121.3,370.5z"/>
	</g>
	
		<image style="overflow:visible;opacity:0.4;" width="520" height="420" xlink:href="camera.jpg"  transform="matrix(1 0 0 1 -520 36.914)">
	</image>
</g>
<g id="Layer_2">
	<path class="st0" d="M-154,163.7h76.9c10.5,0,19.1,8.5,19.1,19.1v199c0,10.5-8.5,19.1-19.1,19.1h-351.9c-10.5,0-19.1-8.5-19.1-19.1
		v-199c0-10.5,8.5-19.1,19.1-19.1h81.3"/>
	<line class="st0" x1="49" y1="64.3" x2="242.6" y2="64.3"/>
	<path class="st1" d="M-350,166.7c0,0,30.1-52.4,47-58.7"/>
	<path class="st2" d="M-149.9,166.7c0,0-32-52.6-50-59"/>
	<line class="st0" x1="-303" y1="108" x2="-197.9" y2="108"/>
	<circle class="st3" cx="-251.5" cy="286.8" r="71.5"/>
	<circle class="st4" cx="-142.1" cy="195.5" r="7.8"/>
	<line class="st5" x1="-400.8" y1="130.7" x2="-369.4" y2="130.7"/>
</g>
</svg>
